<mxfile host="app.diagrams.net" agent="Mozilla/5.0 (Windows NT 10.0; Win64; x64) AppleWebKit/537.36 (KHTML, like Gecko) Chrome/140.0.0.0 Safari/537.36 Edg/140.0.0.0" version="28.2.5">
  <diagram name="Page-1" id="Cw-l4VJwjUMaSof0Kfwv">
    <mxGraphModel dx="1111" dy="566" grid="1" gridSize="10" guides="1" tooltips="1" connect="1" arrows="1" fold="1" page="1" pageScale="1" pageWidth="1400" pageHeight="850" math="0" shadow="0">
      <root>
        <mxCell id="0" />
        <mxCell id="1" parent="0" />
        <mxCell id="iKj7YtRFLOx-C1VoH7WF-3" style="edgeStyle=orthogonalEdgeStyle;rounded=0;orthogonalLoop=1;jettySize=auto;html=1;" edge="1" parent="1" source="iKj7YtRFLOx-C1VoH7WF-1" target="iKj7YtRFLOx-C1VoH7WF-2">
          <mxGeometry relative="1" as="geometry" />
        </mxCell>
        <mxCell id="iKj7YtRFLOx-C1VoH7WF-5" style="edgeStyle=orthogonalEdgeStyle;rounded=0;orthogonalLoop=1;jettySize=auto;html=1;" edge="1" parent="1" source="iKj7YtRFLOx-C1VoH7WF-1" target="iKj7YtRFLOx-C1VoH7WF-4">
          <mxGeometry relative="1" as="geometry" />
        </mxCell>
        <mxCell id="iKj7YtRFLOx-C1VoH7WF-1" value="Kondisi" style="ellipse;whiteSpace=wrap;html=1;" vertex="1" parent="1">
          <mxGeometry x="120" y="175" width="120" height="80" as="geometry" />
        </mxCell>
        <mxCell id="iKj7YtRFLOx-C1VoH7WF-2" value="&lt;div style=&quot;text-align: justify;&quot;&gt;&lt;b&gt;&lt;span style=&quot;white-space: pre;&quot;&gt;&#x9;&lt;/span&gt;- Keterbatasan Pelatih: &lt;/b&gt;Adanya keterbatasan bagi pelatih untuk memberikan &lt;span style=&quot;white-space: pre;&quot;&gt;&#x9;&lt;/span&gt;umpan balik (feedback) yang instan, objektif, dan personal kepada setiap &lt;span style=&quot;white-space: pre;&quot;&gt;&#x9;&lt;/span&gt;pemain, &lt;span style=&quot;white-space: pre;&quot;&gt;&#x9;&lt;/span&gt;terutama dalam sesi latihan kelompok.&lt;/div&gt;&lt;div style=&quot;text-align: justify;&quot;&gt;&lt;b&gt;&lt;br&gt;&lt;/b&gt;&lt;/div&gt;&lt;div style=&quot;text-align: justify;&quot;&gt;&lt;br&gt;&lt;/div&gt;&lt;div style=&quot;text-align: justify;&quot;&gt;&lt;b&gt;&lt;span style=&quot;white-space: pre;&quot;&gt;&#x9;&lt;/span&gt;- Kurangnya Alat Ukur Objektif: &lt;/b&gt;Pemain, khususnya yang berlatih mandiri, &lt;span style=&quot;white-space: pre;&quot;&gt;&#x9;&lt;/span&gt;&amp;nbsp;tidak memiliki alat yang akurat untuk memantau dan mengukur kualitas serta &lt;span style=&quot;white-space: pre;&quot;&gt;&#x9;&lt;/span&gt;&amp;nbsp;kuantitas repetisi gerakan teknis mereka.&lt;/div&gt;&lt;div style=&quot;text-align: justify;&quot;&gt;&lt;b&gt;&lt;br&gt;&lt;/b&gt;&lt;/div&gt;&lt;div style=&quot;text-align: justify;&quot;&gt;&lt;br&gt;&lt;/div&gt;&lt;div style=&quot;text-align: justify;&quot;&gt;&lt;b&gt;&lt;span style=&quot;white-space: pre;&quot;&gt;&#x9;&lt;/span&gt;-&amp;nbsp; Evaluasi Subjektif: &lt;/b&gt;Proses evaluasi teknik pemain seringkali bergantung &lt;span style=&quot;white-space: pre;&quot;&gt;&#x9;&lt;/span&gt;pada pengamatan subjektif pelatih, yang dapat menyebabkan inkonsistensi.&lt;/div&gt;&lt;div style=&quot;text-align: justify;&quot;&gt;&lt;b&gt;&lt;br&gt;&lt;/b&gt;&lt;/div&gt;&lt;div style=&quot;text-align: justify;&quot;&gt;&lt;b&gt;&lt;br&gt;&lt;/b&gt;&lt;/div&gt;&lt;div style=&quot;text-align: justify;&quot;&gt;&lt;b&gt;&lt;span style=&quot;white-space: pre;&quot;&gt;&#x9;&lt;/span&gt;-&amp;nbsp; Akses Terbatas ke Pelatihan Profesional: &lt;/b&gt;Tidak semua pemain memiliki &lt;span style=&quot;white-space: pre;&quot;&gt;&#x9;&lt;/span&gt;akses ke fasilitas atau pelatih profesional untuk mendapatkan bimbingan yang &lt;span style=&quot;white-space: pre;&quot;&gt;&#x9;&lt;/span&gt;mendalam dan berkelanjutan&lt;/div&gt;" style="rounded=1;whiteSpace=wrap;html=1;" vertex="1" parent="1">
          <mxGeometry x="410" y="40" width="480" height="350" as="geometry" />
        </mxCell>
        <mxCell id="iKj7YtRFLOx-C1VoH7WF-7" style="edgeStyle=orthogonalEdgeStyle;rounded=0;orthogonalLoop=1;jettySize=auto;html=1;" edge="1" parent="1" source="iKj7YtRFLOx-C1VoH7WF-4" target="iKj7YtRFLOx-C1VoH7WF-6">
          <mxGeometry relative="1" as="geometry" />
        </mxCell>
        <mxCell id="iKj7YtRFLOx-C1VoH7WF-9" style="edgeStyle=orthogonalEdgeStyle;rounded=0;orthogonalLoop=1;jettySize=auto;html=1;" edge="1" parent="1" source="iKj7YtRFLOx-C1VoH7WF-4" target="iKj7YtRFLOx-C1VoH7WF-8">
          <mxGeometry relative="1" as="geometry" />
        </mxCell>
        <mxCell id="iKj7YtRFLOx-C1VoH7WF-4" value="Tindakan" style="ellipse;whiteSpace=wrap;html=1;" vertex="1" parent="1">
          <mxGeometry x="120" y="585" width="120" height="80" as="geometry" />
        </mxCell>
        <mxCell id="iKj7YtRFLOx-C1VoH7WF-6" value="&lt;blockquote style=&quot;margin: 0 0 0 40px; border: none; padding: 0px;&quot;&gt;&lt;div style=&quot;text-align: justify;&quot;&gt;-&amp;nbsp; &lt;b&gt;Penerapan Algoritma MoveNet:&lt;/b&gt; Mengimplementasikan algoritma MoveNet untuk melakukan deteksi pose tubuh (pose estimation) secara real-time, yang mampu melacak 17 titik kunci pada tubuh pemain dengan akurasi tinggi selama bergerak.&lt;/div&gt;&lt;div style=&quot;text-align: justify;&quot;&gt;&lt;br&gt;&lt;/div&gt;&lt;div style=&quot;text-align: justify;&quot;&gt;- &lt;b&gt;Pengembangan Aplikasi Mobile:&lt;/b&gt; Membangun sebuah aplikasi mobile yang berfungsi untuk menganalisis berbagai gerakan fundamental dalam bulu tangkis, seperti smash, drop shot, footwork, servis, dan lainnya.&lt;/div&gt;&lt;div style=&quot;text-align: justify;&quot;&gt;&lt;br&gt;&lt;/div&gt;&lt;div style=&quot;text-align: justify;&quot;&gt;-&amp;nbsp; &lt;b&gt;Penyediaan Umpan Balik Instan:&lt;/b&gt; Sistem dirancang untuk memberikan umpan balik visual dan kuantitatif secara langsung kepada pengguna, sehingga mereka dapat segera mengetahui ketepatan atau kesalahan dalam gerakan yang dilakukan.&lt;/div&gt;&lt;div style=&quot;text-align: justify;&quot;&gt;&lt;br&gt;&lt;/div&gt;&lt;div style=&quot;text-align: justify;&quot;&gt;-&amp;nbsp; &lt;b&gt;Analisis dan Rekaman Performa:&lt;/b&gt; Aplikasi akan merekam dan menganalisis data gerakan pemain, yang hasilnya dapat digunakan untuk evaluasi performa dan memantau kemajuan latihan dari waktu ke waktu.&lt;/div&gt;&lt;/blockquote&gt;" style="rounded=1;whiteSpace=wrap;html=1;" vertex="1" parent="1">
          <mxGeometry x="410" y="450" width="480" height="350" as="geometry" />
        </mxCell>
        <mxCell id="iKj7YtRFLOx-C1VoH7WF-11" style="edgeStyle=orthogonalEdgeStyle;rounded=0;orthogonalLoop=1;jettySize=auto;html=1;" edge="1" parent="1" source="iKj7YtRFLOx-C1VoH7WF-8" target="iKj7YtRFLOx-C1VoH7WF-10">
          <mxGeometry relative="1" as="geometry" />
        </mxCell>
        <mxCell id="iKj7YtRFLOx-C1VoH7WF-8" value="Hasil" style="ellipse;whiteSpace=wrap;html=1;" vertex="1" parent="1">
          <mxGeometry x="120" y="1020" width="120" height="80" as="geometry" />
        </mxCell>
        <mxCell id="iKj7YtRFLOx-C1VoH7WF-10" value="&lt;blockquote style=&quot;margin: 0 0 0 40px; border: none; padding: 0px;&quot;&gt;&lt;div style=&quot;text-align: justify;&quot;&gt;- &lt;b&gt;Peningkatan Kemandirian Pemain:&lt;/b&gt; Pemain dapat mengevaluasi performa secara objektif dan melakukan latihan mandiri dengan lebih terarah dan efektif, tanpa harus selalu bergantung pada kehadiran pelatih.&lt;/div&gt;&lt;div style=&quot;text-align: justify;&quot;&gt;&lt;br&gt;&lt;/div&gt;&lt;div style=&quot;text-align: justify;&quot;&gt;&lt;br&gt;&lt;/div&gt;&lt;div style=&quot;text-align: justify;&quot;&gt;- &lt;b&gt;Alat Bantu Analitis untuk Pelatih:&lt;/b&gt; Pelatih mendapatkan sebuah alat bantu berbasis data yang dapat digunakan untuk menganalisis teknik pemain secara lebih mendalam dan akurat, sehingga kualitas pelatihan meningkat.&lt;/div&gt;&lt;div style=&quot;text-align: justify;&quot;&gt;&lt;br&gt;&lt;/div&gt;&lt;div style=&quot;text-align: justify;&quot;&gt;&lt;br&gt;&lt;/div&gt;&lt;div style=&quot;text-align: justify;&quot;&gt;- &lt;b&gt;Metode Pelatihan Berbasis Data:&lt;/b&gt; Terciptanya sebuah metode pelatihan yang lebih efisien, terukur, dan dapat dipersonalisasi sesuai dengan kebutuhan serta kelemahan masing-masing pemain.&lt;/div&gt;&lt;div style=&quot;text-align: justify;&quot;&gt;&lt;br&gt;&lt;/div&gt;&lt;div style=&quot;text-align: justify;&quot;&gt;- &lt;b&gt;Perbaikan Teknik yang Lebih Cepat:&lt;/b&gt; Melalui umpan balik instan, pemain dapat lebih cepat memahami dan memperbaiki kesalahan dalam teknik gerakan, yang pada akhirnya akan meningkatkan kualitas permainan mereka secara keseluruhan.&lt;/div&gt;&lt;/blockquote&gt;&lt;div style=&quot;text-align: justify;&quot;&gt;&lt;br&gt;&lt;/div&gt;" style="rounded=1;whiteSpace=wrap;html=1;" vertex="1" parent="1">
          <mxGeometry x="410" y="845" width="490" height="430" as="geometry" />
        </mxCell>
      </root>
    </mxGraphModel>
  </diagram>
</mxfile>
